<?xml version="1.0" encoding="iso-8859-1"?>
<!-- Uploaded to: SVG Repo, www.svgrepo.com, Generator: SVG Repo Mixer Tools -->
<svg fill="#000000" height="800px" width="800px" version="1.1" id="Layer_1" xmlns="http://www.w3.org/2000/svg" xmlns:xlink="http://www.w3.org/1999/xlink" 
	 viewBox="0 0 512 512" xml:space="preserve">
<g>
	<g>
		<path d="M96,0C66.133,0,42.667,23.467,42.667,53.333v405.333C42.667,488.533,66.133,512,96,512h373.333V0H96z M426.667,469.333H96
			c-6.4,0-10.667-4.267-10.667-10.667V53.333c0-6.4,4.267-10.667,10.667-10.667h330.667V469.333z"/>
	</g>
</g>
<g>
	<g>
		<path d="M96,0C66.133,0,42.667,23.467,42.667,53.333v373.333h128V0H96z M128,384H85.333V53.333c0-6.4,4.267-10.667,10.667-10.667
			h32V384z"/>
	</g>
</g>
<g>
	<g>
		<path d="M42.667,384v74.667C42.667,488.533,66.133,512,96,512h373.333V384H42.667z M426.667,469.333H96
			c-6.4,0-10.667-4.267-10.667-10.667v-32h341.333V469.333z"/>
	</g>
</g>
<g>
	<g>
		<path d="M377.6,196.267c0-2.133,6.4-32,0-40.533l-12.8-17.067c-8.533-12.8-27.733-10.667-36.267,2.133c-2.133,0-4.267,0-8.533,0
			c-2.133,0-4.267,0-6.4,0c-4.267-17.067-25.6-17.067-34.133-2.133c0,0-2.133,0-6.4,0s0,0-8.533,0
			c-6.4-12.8-25.6-14.933-36.267-2.133L217.6,153.6c-6.4,8.533-6.4,19.2,0,27.733c0,0,4.267,6.4,4.267,10.667
			c0,0-8.533,25.6-8.533,44.8c0,3.488,0,5.566,0,8.533c0,0.663,0,1.355,0,2.133c4.267,21.333,17.067,38.4,36.267,49.067l6.4,2.133
			c4.267,2.133,10.667,4.267,14.933,8.533c4.267,2.133,51.2,2.133,53.333,0c4.267-2.133,10.667-6.4,12.8-6.4l6.4-2.133
			c19.2-10.667,38.4-51.2,38.4-51.2S384,241.067,384,236.8C384,217.6,381.867,204.8,377.6,196.267z M337.067,238.933
			c-2.133,10.667-8.533,17.067-14.933,21.333l-23.467,12.8c-2.133,0-17.067-10.667-23.467-12.8l-4.267-2.133
			c-8.533-4.267-12.8-10.667-14.933-21.333c0-12.8,2.133-21.333,2.133-23.467c2.133-4.267,2.133-8.533,4.267-12.8
			c2.133-6.4,2.133-12.8,0-19.2c4.267,0,6.4,0,10.667,0c8.533,0,17.067-2.133,23.467-4.267c6.4,2.133,14.933,4.267,23.467,4.267
			c4.267,0,8.533,0,10.667,0c0,6.4,0,12.8,0,19.2c0,4.267,2.133,8.533,4.267,12.8c2.133,2.133,2.133,10.667,2.133,23.467V238.933z"
			/>
	</g>
</g>
</svg>