<?xml version="1.0" encoding="iso-8859-1"?>
<!-- Uploaded to: SVG Repo, www.svgrepo.com, Generator: SVG Repo Mixer Tools -->
<!DOCTYPE svg PUBLIC "-//W3C//DTD SVG 1.1//EN" "http://www.w3.org/Graphics/SVG/1.1/DTD/svg11.dtd">
<svg fill="#000000" height="800px" width="800px" version="1.1" id="Capa_1" xmlns="http://www.w3.org/2000/svg" xmlns:xlink="http://www.w3.org/1999/xlink" 
	 viewBox="0 0 306.74 306.74" xml:space="preserve">
<g>
	<path d="M245.74,167.87h-15.5c-5.522,0-10,4.478-10,10c0,5.523,4.478,10,10,10h15.5c5.514,0,10,4.486,10,10s-4.486,10-10,10
		h-67.833c0-33.117,0-34.186,0-49h23.336c4.867,0,9.281-3.042,11.278-7.479l24.869-55.453c1.723-3.827,1.387-8.141-0.893-11.665
		c-2.278-3.524-6.188-5.402-10.386-5.402H37.237c-4.867,0-9.281,2.667-11.278,7.104L1.09,141.053
		c-1.723,3.827-1.387,8.391,0.893,11.915c2.278,3.524,6.189,5.902,10.386,5.902h54.539c0,14.811,0,15.881,0,49H39.24
		c-5.522,0-10,4.478-10,10c0,5.523,4.478,10,10,10h38h91h77.5c16.542,0,30-13.458,30-30S262.282,167.87,245.74,167.87z
		 M86.907,158.87h71c0,14.811,0,15.881,0,49h-71C86.907,174.753,86.907,173.685,86.907,158.87z"/>
	<path d="M276.74,97.87h-15.5c-5.522,0-10,4.478-10,10s4.478,10,10,10h15.5c5.514,0,10,4.486,10,10c0,5.514-4.486,10-10,10h-41.733
		l-8.807,19.614c-0.059,0.132-0.13,0.256-0.191,0.386h50.73c16.542,0,30-13.458,30-30S293.282,97.87,276.74,97.87z"/>
</g>
</svg>